<svg width="22" height="24" viewBox="0 0 22 24" fill="none" xmlns="http://www.w3.org/2000/svg">
<rect width="22" height="24" fill="#E5E5E5"/>
<g id="Desktop -  1366x768 - final" clip-path="url(#clip0_0_1)">
<rect width="1516" height="1464" transform="translate(-1350 -21)" fill="#EFEFEF"/>
<g id="Group 83">
<g id="Rectangle 12" filter="url(#filter0_d_0_1)">
<rect x="-1350" y="-21" width="1516" height="72" fill="white"/>
</g>
<g id="Group 82">
<g id="Frame 80">
<path id="Vector" fill-rule="evenodd" clip-rule="evenodd" d="M14.9803 5.53846C14.9803 7.57767 13.1457 9.23077 10.8826 9.23077C8.61943 9.23077 6.78481 7.57767 6.78481 5.53846C6.78481 3.49926 8.61943 1.84615 10.8826 1.84615C13.1457 1.84615 14.9803 3.49926 14.9803 5.53846ZM17.0292 5.53846C17.0292 8.59726 14.2772 11.0769 10.8826 11.0769C7.48788 11.0769 4.73593 8.59726 4.73593 5.53846C4.73593 2.47966 7.48788 0 10.8826 0C14.2772 0 17.0292 2.47966 17.0292 5.53846ZM2.68706 20.3077C2.68706 17.2488 5.43901 14.7692 8.83368 14.7692H12.9314C16.3262 14.7692 19.0781 17.2488 19.0781 20.3077V22.1538H2.68706V20.3077ZM0.638184 20.3077C0.638184 16.2294 4.30743 12.9231 8.83368 12.9231H12.9314C17.4576 12.9231 21.1269 16.2294 21.1269 20.3077V22.1538V24H19.0781H2.68706H0.638184V22.1538V20.3077Z" fill="#9758A6"/>
</g>
</g>
</g>
</g>
<defs>
<filter id="filter0_d_0_1" x="-1353" y="-23" width="1526" height="82" filterUnits="userSpaceOnUse" color-interpolation-filters="sRGB">
<feFlood flood-opacity="0" result="BackgroundImageFix"/>
<feColorMatrix in="SourceAlpha" type="matrix" values="0 0 0 0 0 0 0 0 0 0 0 0 0 0 0 0 0 0 127 0" result="hardAlpha"/>
<feOffset dx="2" dy="3"/>
<feGaussianBlur stdDeviation="2.5"/>
<feColorMatrix type="matrix" values="0 0 0 0 0 0 0 0 0 0 0 0 0 0 0 0 0 0 0.15 0"/>
<feBlend mode="normal" in2="BackgroundImageFix" result="effect1_dropShadow_0_1"/>
<feBlend mode="normal" in="SourceGraphic" in2="effect1_dropShadow_0_1" result="shape"/>
</filter>
<clipPath id="clip0_0_1">
<rect width="1516" height="1464" fill="white" transform="translate(-1350 -21)"/>
</clipPath>
</defs>
</svg>
